<svg width="484" height="298" fill="none" xmlns="http://www.w3.org/2000/svg"><path d="M434.705 195.043c0 37.188-10.418 71.915-28.485 101.499H73.016c-18.067-29.584-28.485-64.311-28.485-101.499 0-46.552 16.309-89.323 43.519-122.864 4.396-5.45 9.1-10.593 14.067-15.56C137.459 21.626 186.033 0 239.662 0 347.36 0 434.705 87.301 434.705 195.043z" fill="#E3FCE3"/><path d="M380.724 131.303c-8 0-14.462 6.462-14.462 14.462h28.88c.044-8-6.462-14.462-14.418-14.462z" fill="#fff"/><path d="M296.412 70.597a22.1 22.1 0 0113.32-4.484c2.022 0 3.956.264 5.802.791.088-.703.132-1.45.132-2.154 0-11.78-9.583-21.363-21.364-21.363-8.088 0-15.165 4.527-18.77 11.165 9.275 1.538 17.056 7.56 20.88 16.045z" fill="#B3E0B3"/><path d="M255.091 97.895c-.263-.264-.483-.483-.703-.747a6.607 6.607 0 01-.44.747h-23.473a13.527 13.527 0 01-2.066-7.21c0-7.604 6.198-13.802 13.803-13.802 2.461 0 4.791.66 6.769 1.802 1.758-10.506 10.858-18.506 21.847-18.506 10.506 0 19.298 7.34 21.584 17.144 1.45.395 2.857.967 4.088 1.802a16.065 16.065 0 0113.275-6.946c8.924 0 16.177 7.254 16.177 16.177v.176a8.605 8.605 0 014.352-1.187 8.555 8.555 0 018.572 8.572c0 .703-.088 1.363-.264 2.022h-83.521v-.044z" fill="#fff"/><path d="M382.087 273.025v22.242h6.154V273.64l27.694 11.297-15.518-39.958 7.165 2.945-11.868-30.594 6.725 2.725-18.022-46.42-18.023 46.42 6.725-2.725-11.868 30.594 7.165-2.945-15.518 39.958 29.189-11.912z" fill="#B3E0B3"/><path d="M213.199 60.047l-.659-1.275c-.044-.044-.088-.132-.132-.22-.484-.967-1.758-3.516-5.495-4.703l.484-1.45c3.296 1.054 4.967 3.076 5.846 4.439l.044-.044c.088-.132 1.714-3.033 5.803-4.352l.483 1.45c-3.473 1.1-4.923 3.605-4.923 3.605l-1.451 2.55zm-27.342-9.187l-.659-1.011c-.044-.088-.088-.176-.176-.264-.484-.791-1.319-2.154-3.868-2.857l.395-1.495c2.418.66 3.605 1.846 4.308 2.813.703-.967 1.89-2.154 4.264-2.813l.396 1.495c-2.506.703-3.297 1.978-3.913 2.9l-.747 1.232zm-24.704 37.056a13.151 13.151 0 00-8.924 3.473 18.722 18.722 0 00-15.957-8.923c-10.374 0-18.77 8.396-18.77 18.77h56.97c0-7.385-5.978-13.32-13.319-13.32zm294.915 207.835l6.594-3.473a3.414 3.414 0 00-1.803-2.022c-2.373-3.648-4.483-11.781-8.044-14.198.703-2.945.572-9.012.572-9.012.351-1.318.395-2.681.088-4l-.44-1.758h1.451c2.373-9.583-1.539-19.518-5.627-23.122l-1.89-2.989c-.044.044-.088.044-.132.087l.088-.087v.044l.923-.748c2.022-1.67 2.549-4.615 1.143-6.857 0-.044-.044-.044-.044-.088-1.627-2.55-6.242-2.857-7.869.835l.704.176c-.044.044-.088.088-.132.176-.264.351-.44.747-.616 1.187-.923 2.505-.088 6.154 1.803 6.813.439.176.923.176 1.45.044-.176 1.846-.615 3.561-.615 3.561l-1.671 7.736-.395 13.232s0 1.758.703 4.703l-3.736 10.155-.923 17.363s-3.869-.088-5.407 1.495l7.736 1.89c.66-1.275 0-2.725 0-2.725l-.088-.044h.088c1.759-5.891 3.649-11.605 3.517-16.485l2.594-2.33a57.37 57.37 0 001.934 3.297l10.506 12.836c.088-.044-2.33 1.978-2.462 4.308z" fill="#fff"/><path d="M444.419 291.355c-.703-1.494-2.418-1.802-2.418-1.802l-1.318-2.857-.528.483c-1.406-3.473-4.088-9.363-7.077-11.517l.132-.264 6.022-.263-2.55-11.737c.176-10.067-1.274-15.781-2.505-18.858 1.055-.572 2.11-1.495 2.505-3.077 0 0-.879-9.408-2.681-11.43-1.626-1.802-4.352-1.758-6.066-.747-.879.528-1.978 2.286-1.978 2.286l.351.088c-.923 2.637-.483 7.121 1.407 7.912.396.176.791.22 1.231.176l-1.099 3.649-2.989 5.67.967 3.561-.22 2.374c-1.143.527-2.154 1.274-3.121 2.022-1.626 1.318-3.033 2.725-4.308 3.604a.71.71 0 00-.396.132l-1.626.879c-.396.264-.571.748-.527 1.187l-.176.088c.219.264.483.616.703.923l.132-.088c.395.22.879.22 1.275-.044l1.406-1.23a1.58 1.58 0 00.308-.44l4.484-2.198 1.494-.747-.483 4.659-1.627 12.045-.132.835v12.792h-.043l.043.747v2.814c-.747.263-3.692 1.274-4.483 2.461l8.176.748c.44-1.495-.879-2.902-.879-2.902l.791-3.121-.659-.132c1.011-3.692 2.198-9.231 1.231-12.484.307-.264.615-.527.923-.835l.132.484 10.154 11.605-.088.043 1.89 2.154s-1.714 2.594-1.714 5.188l5.934-4.836zM40.135 200.142h-8.747l-4.44-13.452v-2.505h17.627v2.505l-4.44 13.452z" fill="#fff"/><path d="M114.117 231.22l8.308 3.737-13.759-38.947 5.891 1.582-18.99-57.189-20.88 59.079 7.78-3.472-13.759 38.947 8.308-3.737-17.979 50.86 36.53-16.396 36.529 16.396-17.979-50.86z" fill="#85C985"/><path d="M95.567 140.403l18.99 57.189-14.199-5.319-4.791-51.87z" fill="#85C985"/><path d="M102.204 175.174l20.924 59.123-16.132-7.209-4.792-51.914z" fill="#85C985"/><path d="M107.919 222.077h6.374l14.55 59.124-16.133-7.253-4.791-51.871z" fill="#85C985"/><path d="M189.99 149.694l-2.55 3.527 1.247.901 2.55-3.526-1.247-.902zm49.818.025l-2.55 3.527 1.247.901 2.55-3.526-1.247-.902z" fill="#401737"/><path d="M261.157 198.164l-.22 80.839H114.513v-80.839h146.644zm50.289-56.531l-47.695 56.531h-2.594v80.839h94.599v-80.839l-44.31-56.531z" fill="#fff"/><path d="M162.735 134.644h-5.539l-52.003 60.091 3.473 3.429h155.085l47.695-56.531 44.309 56.531h5.803l-49.981-63.52H162.735zm98.29 144.359H114.513v11.077h146.512v-11.077z" fill="#fff"/><path d="M356.239 279.003h-95.301v11.077h95.301v-11.077zm10.066 11.078H227.134v5.626h139.171v-5.626z" fill="#fff"/><path d="M276.323 290.081H104.051v5.626h172.272v-5.626z" fill="#fff"/><path d="M310.874 194.779c4.856 0 8.792-4.566 8.792-10.198 0-5.633-3.936-10.199-8.792-10.199-4.855 0-8.791 4.566-8.791 10.199 0 5.632 3.936 10.198 8.791 10.198z" fill="#85C985"/><path d="M307.401 193.284l12.397-12.396c-.132-.22-.308-.396-.44-.571-.528-.44-1.011-.924-1.363-1.407l-12.792 12.792c.66.571 1.319 1.319 2.198 1.582zm13.364-6.374c-.132-.879-.088-1.802 0-2.725l-10.506 10.55h3.824l6.682-6.682c-.044-.395 0-.747 0-1.143z" fill="#fff"/><path d="M313.028 174.382a4.824 4.824 0 00-1.143.264 10.287 10.287 0 017.605 9.935c0 4.747-3.253 8.747-7.605 9.934.396.088.748.176 1.143.264 4.967-.747 8.792-5.011 8.792-10.198-.044-5.187-3.825-9.451-8.792-10.199z" fill="#6BB26B"/><path d="M217.287 221.462h-95.302v43.298h95.302v-43.298zm96.62 23.122h-24.748v34.419h24.748v-34.419zm-6.154-11.561h-23.826l19.65-24.09h22.858l-18.682 24.09zm-126.819-82.29h-17.672v18.242h17.672v-18.242zm49.804 0h-17.671v18.242h17.671v-18.242zm29.936 139.743h-97.412l8.836-11.429h88.576v11.429z" fill="#85C985"/><path d="M276.323 295.575v-5.626H150.339l-4.352 5.626h130.336zm-15.693-97.411h-5.671v80.795h5.671v-80.795z" fill="#6BB26B"/><path d="M264.85 198.779H114.161v3.473H264.85v-3.473z" fill="#6BB26B"/><path d="M260.938 202.208h5.846l44.53-52.53 38.727 49.101h5.495l-44.398-55.915-47.607 55.959h-2.593v3.385z" fill="#6BB26B"/><path d="M260.542 194.735H105.193l51.695-60.091 154.338-.044-50.684 60.135z" fill="#85C985"/><path d="M188.055 153.678l-15.737-17.715-14.023 15.693v22.594h29.628l18.023-20.616-17.891.044z" fill="#fff"/><path d="M208.319 139.436l-11.209-13.144h-27.254L148.8 150.557l3.121 3.077h6.286v-1.978l14.023-15.693 15.737 17.715h20.045l.307-14.242z" fill="#fff"/><path d="M267.356 150.205l-20.397-23.869h-27.254l-21.056 24.265 3.121 3.077h6.286v-2.022l14.023-15.693 15.737 17.715h26.243l3.297-3.473z" fill="#fff"/><path d="M237.903 153.678l-15.737-17.715-14.022 15.693v22.594h29.627l18.023-20.616-17.891.044z" fill="#fff"/><path d="M205.11 153.634l-17.055 19.957v-19.913h3.165l13.89-.044z" fill="#6BB26B"/><path d="M180.67 150.733h-17.408v17.407h17.408v-17.407zm49.98 0h-17.407v17.407h17.407v-17.407z" fill="#85C985"/><path d="M254.959 153.634l-17.055 19.957v-19.913h3.165l13.89-.044zm-88.795-2.55h-2.902v17.891h2.902v-17.891z" fill="#6BB26B"/><path d="M180.934 150.733h-17.672v2.242h17.672v-2.242zm35.034.351h-2.901v17.891h2.901v-17.891z" fill="#6BB26B"/><path d="M230.738 150.733h-17.671v2.242h17.671v-2.242z" fill="#6BB26B"/><path d="M208.319 139.436l-8.923 10.681h-8.792l-20.66-23.825 27.166.044 11.209 13.1zm59.168 11.297l-27.561-.616-20.661-23.825 27.166.044 21.056 24.397z" fill="#85C985"/><path d="M192.187 221.549l-43.739 43.739h4.792l43.738-43.739h-4.791zm-20.441 0l-43.738 43.739h4.791l43.739-43.739h-4.792zm-10.198 0l-39.782 39.783v3.956h.835l43.739-43.739h-4.792zm20.396 0l-43.738 43.739h4.791l43.783-43.739h-4.836zm-51.079 0l-9.099 9.144v4.791l13.935-13.935h-4.836zm20.441 0l-29.54 29.584v4.792l34.331-34.376h-4.791zm-10.199 0l-19.341 19.342v4.835l24.133-24.177h-4.792zm-19.341 0v3.737l3.692-3.737h-3.692zm79.828 0l-43.739 43.739h4.792l43.738-43.739h-4.791zm15.605 25.276l-18.462 18.463h4.791l13.671-13.671v-4.792zm0 10.199l-8.264 8.264h4.791l3.473-3.473v-4.791zm0-30.639l-38.903 38.903h4.791l34.112-34.112v-4.791zm0 10.198l-28.705 28.705h4.792l23.913-23.913v-4.792zm-5.407-15.034l-43.738 43.739h4.791l43.783-43.739h-4.836zm87.521 57.498h-10.154v10.154h10.154v-10.154z" fill="#6BB26B"/><path d="M303.973 285.025h-7.429v4.924h7.429v-4.924zM208.1 153.678h-20.045v21.408H208.1v-21.408z" fill="#6BB26B"/><path d="M246.739 243.221h-7.649v5.67h7.649v-5.67zm-8.572 4.528H226.87v5.67h11.297v-5.67zm117.281 11.605H344.15v5.67h11.298v-5.67z" fill="#F2E7E5"/><path d="M217.287 221.462h-95.302v3.736h95.302v-3.736z" fill="#6BB26B"/><path d="M126.249 221.857h-3.428v42.508h3.428v-42.508z" fill="#6BB26B"/><path d="M398.615 270.299v-17.231h-1.319c-8.66 0-15.693 7.033-15.693 15.693v5.319c0 2.198 1.802 4 4 4h22.199c2.198 0 4-1.802 4-4v-3.781h-13.187zm26.419-6.374l-1.627 12.045 14.506-.66 1.671-.088-2.594-11.736-11.956.439zm27.825-11.517s-1.274-6.198-3.824-7.605l-3.78 1.363 4.439 5.847c-1.582 2.417-1.758 7.121-2.505 9.67l-5.891.044.396-13.803 2.066-7.824 3.297-.528 1.89-1.934c4.264 3.737 8.308 14.067 5.847 24.045h-5.583c1.494-3.297 2.813-5.978 3.648-9.275zM44.443 184.185H26.948v4.044h17.495v-4.044zm-2.593 97.06H30.025v8.22H41.85v-8.22z" fill="#85C985"/><path d="M389.648 294.546a3.867 3.867 0 000-5.47 3.867 3.867 0 00-5.47 0 3.867 3.867 0 000 5.47 3.867 3.867 0 005.47 0zm14.196-.007a3.87 3.87 0 000-5.471 3.868 3.868 0 100 5.471zm-354.961 1.08H23.255v-3.297a2.852 2.852 0 012.858-2.857h19.913a2.852 2.852 0 012.857 2.857v3.297z" fill="#fff"/><path d="M314.347 244.584h-24.749v4.264h24.749v-4.264z" fill="#6BB26B"/><path d="M314.303 244.759h-4.044v34.288h4.044v-34.288z" fill="#6BB26B"/><path d="M447.936 234.429c2.022-1.67 2.549-4.615 1.143-6.857 0-.044-.044-.044-.044-.088-1.627-2.55-6.242-2.857-7.869.835l3.341.791.088 1.451 1.539.044.923 4.616.879-.792zm-11.209 6.99s-.88-9.408-2.682-11.43c-1.626-1.802-4.352-1.758-6.066-.747-.879.528-1.978 2.286-1.978 2.286l5.275 1.363.044 12.44s4.439-.176 5.407-3.912zm-9.496 48.398l-3.912-.792.484 3.561s-3.957 1.89-4.924 3.253h8.484c.44-1.495-.967-2.857-.967-2.857l.835-3.165zm13.012 3.121c-.175.439-.351.879-.615 1.274l4.967-2.769c-.308-1.538-2.242-2.066-2.242-2.066l-.307-1.099c-.352 1.627-1.231 3.165-1.803 4.66z" fill="#85C985"/><path d="M57.719 283.487l17.979-50.816-8.308 3.736 13.758-38.99-7.78 3.516 22.243-62.904 16.44 49.541-1.494.483-14.99-45.277-19.562 55.3 7.781-3.517-13.759 38.947 8.308-3.736-17.979 50.859 35.21-15.781 19.254 8.616-.615 1.407-18.638-8.352-37.848 16.968z" fill="#393939"/><path d="M96.358 262.738H94.82v33.453h1.538v-33.453z" fill="#393939"/><path d="M483.938 294.916H.485v1.539h483.453v-1.539zM213.023 133.853h-8.264v1.538h8.264v-1.538zm48.794 145.897H113.853v-82.333h148.228l-.264 82.333zm-146.425-1.538h144.93l.22-79.257h-145.15v79.257z" fill="#393939"/><path d="M356.635 279.75h-96.137v-82.378h3.033l48.046-57.013 45.058 57.497v81.894zm-94.598-1.538h93.059v-79.828l-43.562-55.564-47.3 56.135h-2.197v79.257z" fill="#393939"/><path d="M264.235 198.955H108.447l-4.176-4.176.483-.571 52.222-60.355h5.891v1.538h-5.187l-51.3 59.3 2.726 2.726h154.425l48.047-57.014 44.705 56.97 3.824.044-48.793-62.026h-56.706v-1.538h57.453l51.211 65.102-7.78-.044-.22-.264-43.738-55.827-47.299 56.135zm-2.33 91.873H113.853v-12.616h148.052v12.616zm-146.513-1.539h144.974v-9.539H115.392v9.539z" fill="#393939"/><path d="M357.119 290.828h-96.84v-12.616h96.84v12.616zm-95.302-1.539h93.763v-9.539h-93.763v9.539z" fill="#393939"/><path d="M332.634 285.817h-33.628v-7.561h33.628v7.561zm-32.134-1.539h30.551v-4.484H300.5v4.484z" fill="#393939"/><path d="M337.293 290.828h-33.672v-6.55h33.628v6.55h.044zm-32.133-1.539h30.551v-3.472H305.16v3.472z" fill="#393939"/><path d="M305.16 290.828h-16.353v-12.66l11.693.044v6.022h4.66v6.594zm-14.814-1.539h13.275v-3.473h-4.659v-6.066l-8.616-.044v9.583zm-81.763-134.82h-20.396l-15.386-17.319-13.275 14.814v2.461h-7.385l-3.824-3.824.483-.528s21.012-24.177 21.056-24.264l.22-.264h28.001l11.43 13.407-1.187 1.011-10.99-12.88h-26.551c-.835.923-4.439 5.099-20.352 23.474l2.373 2.33h5.231v-1.539l14.814-16.528 16.089 18.111h19.737v1.538h-.088z" fill="#393939"/><path d="M188.714 175.042h-30.77v-23.694l14.814-16.528 16.088 18.111 19.254-.044-19.386 22.155zm-29.188-1.539h28.485l16.66-19.078-16.528.044-15.385-17.319-13.276 14.814v21.539h.044z" fill="#393939"/><path d="M189.286 153.678h-1.539v20.573h1.539v-20.573zm-36.266.484l-1.187-1.011 20.661-24.617 18.902 20.836h8.44v1.539h-9.099l-18.199-20.045-19.518 23.298zm78.949 15.605H212.76v-19.781h19.209v19.781zm-17.671-1.539h16.133v-16.704h-16.133v16.704z" fill="#393939"/><path d="M182.165 169.767h-19.254v-19.781h19.254v19.781zm-17.715-1.539h16.176v-16.704H164.45v16.704zm100.444-13.759h-26.902l-15.386-17.319-13.275 14.814v2.461h-7.385l-3.824-3.824.483-.528s21.012-24.177 21.056-24.264l.22-.264h28.001l21.1 24.66-4.088 4.264zm-26.199-1.538h25.54l2.637-2.726-19.737-23.078h-26.551c-.835.923-4.44 5.099-20.352 23.474l2.373 2.33h5.187v-1.539l14.814-16.528 16.089 18.067z" fill="#393939"/><path d="M238.563 175.042h-30.771v-23.694l14.814-16.528 16.089 18.111 19.254-.044-19.386 22.155zm-29.232-1.539h28.529l16.66-19.078-16.528.044-15.386-17.319-13.275 14.814v21.539z" fill="#393939"/><path d="M239.091 153.678h-1.539v20.573h1.539v-20.573zm-36.222.484l-1.187-1.011 20.661-24.617 18.902 20.836h26.682v1.539h-27.386l-18.155-20.045-19.517 23.298zm15.649 111.346h-96.84V220.67h96.84v44.838zm-95.301-1.539h93.762v-41.76h-93.762v41.76zm195.702 15.825h-30.112v-40.221h30.112v40.221zm-28.573-1.538h27.034v-37.145h-27.034v37.145z" fill="#393939"/><path d="M315.094 279.794h-26.287v-35.958h26.287v35.958zm-24.748-1.538h23.21v-32.881h-23.21v32.881zm55.563-40.574l-18.111-21.979-17.187 21.628h-24.573l-3.473-3.473 21.1-25.672h24.573l21.232 25.98-3.561 3.516zm-59.255-1.89h23.21l17.934-22.506 18.243 22.111 1.363-1.363-19.869-24.309h-23.122l-19.738 24.045 1.979 2.022zm80.531 60.662h-91.521v-7.165h91.521v7.165zm-89.983-1.538h88.444v-4.088h-88.444v4.088z" fill="#393939"/><path d="M277.202 296.454H103.391v-7.165h173.811v7.165zm-172.272-1.538h170.734v-4.088H104.93v4.088zm203.57-60.311h-24.88v-1.538h24.133l19.518-24.617 1.23.967-20.001 25.188zm3.781-38.903c-6.11 0-11.121-4.967-11.121-11.121 0-6.11 4.967-11.122 11.121-11.122 6.11 0 11.122 4.968 11.122 11.122 0 6.11-5.012 11.121-11.122 11.121zm0-20.704c-5.275 0-9.583 4.308-9.583 9.583s4.308 9.583 9.583 9.583 9.583-4.308 9.583-9.583-4.308-9.583-9.583-9.583zm-50.948 20.484H105.326v-1.538H260.63l50.464-59.827 1.187 1.011-50.948 60.354zm-108.137 25.98h-1.539v43.343h1.539v-43.343zm32.837 0h-1.539v43.343h1.539v-43.343z" fill="#393939"/><path d="M217.727 243.045h-95.302v1.539h95.302v-1.539z" fill="#393939"/><path d="M456.288 296.235c-.176 0-.352-.044-.483-.176-.264-.176-.396-.527-.352-.835.396-2.374 2.637-4.264 2.725-4.352l.836 1.011s-1.319 1.099-1.935 2.55l4.748-2.506c-.44-.791-1.187-1.099-1.231-1.099l.484-1.231c.087.044 1.626.66 2.197 2.418l.176.527-6.769 3.561c-.088.132-.264.132-.396.132zm-20.089.264l-5.143-1.143.835-.836c1.715-1.758 5.759-1.714 5.891-1.714l-.044 1.319c-.704 0-2.374.088-3.693.571l2.418.528-.264 1.275zm4.792-.572l-1.319-.176c.088-.703-.22-1.363-.22-1.363l1.187-.615c.044.132.484 1.055.352 2.154zm.791-29.804c-.659-2.901-.703-4.659-.703-4.747h1.318s.044 1.714.66 4.44l-1.275.307z" fill="#401737"/><path d="M458.926 292.235c-.176 0-.308 0-.484-.044l-.22-.044-10.682-13.056c-.044-.044-.923-1.407-1.978-3.341l1.143-.615c.967 1.714 1.759 3.033 1.89 3.253l10.287 12.616c.439 0 .879-.352 1.099-.616-.792-1.318-1.539-3.077-2.33-4.879-1.495-3.385-3.165-7.253-5.275-8.704l-.396-.264.088-.439c.703-2.813.572-8.792.572-8.836l1.318-.044c0 .22.132 5.671-.483 8.792 2.242 1.758 3.824 5.451 5.363 8.967.835 1.979 1.67 3.825 2.505 5.1l.22.351-.264.352c.088 0-.923 1.451-2.373 1.451z" fill="#401737"/><path d="M439.98 294.74c-.44 0-1.759-.088-2.638-.791l-.264-.22.967-17.803 5.407-14.638 1.231.439-5.363 14.463-.923 16.88c.352.176.791.263 1.143.307l.264-.923c1.626-5.407 3.165-10.506 3.077-14.858v-.307l8.352-7.605c.703-.835 1.187-1.846 1.494-2.857a8.047 8.047 0 00.088-3.693l-.395-1.758 1.275-.308.395 1.758c.308 1.407.264 2.902-.088 4.308a9.523 9.523 0 01-1.802 3.429l-.044.044-7.956 7.209c.044 4.528-1.495 9.627-3.121 14.99l-.572 1.846h-.483c.044.088 0 .088-.044.088z" fill="#401737"/><path d="M455.057 261.947h-5.319v-1.319h4.264c2.066-9.319-1.846-18.682-5.538-21.935l.879-1.011c4.615 4.044 8.176 14.287 5.846 23.738l-.132.527zm-7.868-.044h-6.11l.395-14.066 1.715-7.693 1.274.264-1.67 7.648-.352 12.529h4.748v1.318z" fill="#401737"/><path d="M444.068 240.935h-.484l-.219-.264a.616.616 0 01-.088-.615c.088-.264.527-1.758.615-3.605l1.319.088c-.088 1.231-.264 2.374-.44 3.077 1.803-.175 2.902-1.011 3.385-1.494l-1.626-2.55 1.099-.703 2.154 3.341-.264.351c-.176.088-1.89 2.374-5.451 2.374z" fill="#401737"/><path d="M443.716 237.463c-.352 0-.659-.044-.967-.176-2.374-.835-3.209-4.924-2.198-7.693.176-.484.616-1.231.66-1.319l1.142.66c-.131.219-.439.791-.571 1.099-.835 2.285-.044 5.45 1.407 5.978.967.352 2.505-.396 3.736-1.758l.044-.044 1.011.879-.044.044c-1.099 1.275-2.725 2.33-4.22 2.33zm5.978 27.078l-1.23-.528c.044-.088.044-.132.044-.219l.263-2.198c0-.132.044-.132.352-.836.747-1.538 2.681-5.494 3.429-8.396-.352-1.67-1.539-5.626-3.209-6.857l-2.638.967 4.176 5.495-.263.395c-.484.748-1.451 2.858-2.33 8.616-.044.352-.044.396-.132.484l-.967 1.802-1.143-.615.923-1.715c0-.044 0-.088.044-.176.615-4.176 1.407-7.121 2.286-8.747l-4.704-6.198 4.924-1.759.263.132c2.726 1.539 4.001 7.385 4.132 8.044l.044.132-.044.132c-.747 3.033-2.813 7.253-3.56 8.836a2.89 2.89 0 00-.264.527l-.264 2.11c0 .22-.044.396-.132.572z" fill="#401737"/><path d="M446.573 236.407l-1.055-5.187-1.582-.044-.088-1.582-3.605-.879.308-.704c.835-1.846 2.374-2.989 4.308-3.121 1.89-.132 3.736.748 4.66 2.198l.044.088c1.538 2.506 1.011 5.803-1.275 7.693l-1.715 1.538zm-1.362-6.505l1.45.044.792 4.044.087-.044c1.759-1.495 2.198-4.044 1.011-5.979l-.043-.087c-.66-1.055-2.067-1.715-3.473-1.627-1.187.088-2.154.659-2.813 1.627l2.945.703.044 1.319zm1.104 32.095l-.621 1.164 4.382 2.339.621-1.164-4.382-2.339zm-47.392 8.61h-1.319v-16.616h-.659c-8.309 0-15.034 6.725-15.034 15.033v1.319h-1.319v-1.319c0-9.011 7.341-16.352 16.353-16.352h1.978v17.935zm29.935-25.935c-.659 0-1.143-.176-1.186-.176l-.572-.22 1.495-4.923 1.274.395-1.099 3.649c.572 0 1.407-.132 2.242-.923l.924.967c-1.143 1.011-2.286 1.231-3.078 1.231z" fill="#401737"/><path d="M428.946 240.408c-.44 0-.879-.088-1.275-.264-2.462-1.055-2.769-6.286-1.67-9.055l1.23.483c-1.011 2.506-.439 6.726.968 7.341.835.352 1.89.088 3.033-.791l.791 1.055c-1.055.835-2.11 1.231-3.077 1.231zm8.484 48.178l-9.671-11.078-.439-1.846 1.318-.264.308 1.495 9.451 10.814-.967.879zm.308-5.715c-1.715-3.472-3.473-5.89-4.967-6.989l.747-1.055c1.714 1.231 3.516 3.736 5.363 7.473l-1.143.571zm-13.891 6.198h-1.319v-12.528l1.847-12.923 1.274.175-1.802 12.88v12.396z" fill="#401737"/><path d="M426.748 290.168l-1.275-.351c1.539-5.451 1.935-9.759 1.231-12.133l-.132-.395.352-.264a21.2 21.2 0 002.022-1.978l.967.879a23.486 23.486 0 01-1.846 1.802c.835 3.385-.22 8.616-1.319 12.44z" fill="#401737"/><path d="M427.408 296.499h-10.243l.704-1.055c.835-1.231 3.604-2.682 4.747-3.253l-.527-4.001 5.494 1.099-.879 3.473c.44.572 1.319 1.846.879 3.253l-.175.484zm-7.254-1.319h6.199c-.044-.923-.836-1.759-.88-1.759l-.263-.263.747-2.814-2.33-.439.396 3.121-.44.22c-.923.395-2.374 1.187-3.429 1.934zm20.617-.132l-.792-1.055 3.781-2.814c-.703-.791-1.934-1.011-1.934-1.011l.22-1.318c.087 0 2.373.395 3.208 2.198l.22.483-4.703 3.517zm-18.243-18.551l1.847-13.363 13.055-.483 2.682 11.165-1.275.308-2.462-10.111-10.857.396-1.451 10.726 14.682-.572.044 1.319-16.265.615z" fill="#401737"/><path d="M437.562 264.453l-13.319-.044.527-5.407 1.319.132-.396 3.956 10.594.044c.176-9.803-1.275-15.385-2.461-18.374l1.23-.484c1.319 3.165 2.814 9.099 2.55 19.561l-.044.616zm-11.077-9.407l-1.319-.132.22-2.286-1.011-3.648 3.077-5.891 1.186.616-2.857 5.407.923 3.428-.219 2.506z" fill="#401737"/><path d="M430.836 245.99l-.044-12.616-5.626-1.45.483-.747c.132-.176 1.231-1.935 2.242-2.506 1.934-1.143 5.011-1.231 6.901.879 1.891 2.11 2.726 10.814 2.814 11.825v.132l-.044.132c-.879 3.34-4.308 4.351-6.023 4.439l-.703-.088zm-3.604-14.857l4.835 1.274.044 12.221c1.143-.22 3.429-.923 4.088-3.253-.264-2.638-1.143-9.407-2.506-10.946-1.362-1.538-3.736-1.494-5.231-.615-.351.22-.835.791-1.23 1.319zm-19.781 47.914h-22.199a4.662 4.662 0 01-4.66-4.66v-4.439h31.518v4.439c-.044 2.55-2.11 4.66-4.659 4.66zm-25.584-7.781v3.121a3.339 3.339 0 003.341 3.341h22.199a3.338 3.338 0 003.34-3.341v-3.121h-28.88zm35.166-6.725a1.92 1.92 0 01-1.582-.835c-.572-.88-.352-2.066.527-2.638l.044-.044 1.627-.879c.132-.088.307-.132.483-.176.66-.483 1.363-1.099 2.11-1.758.66-.572 1.319-1.143 2.066-1.758l.66-.528c1.143-.835 2.681-1.802 4.439-2.286-.044-1.143-.087-3.824.792-6.242l.219-.571 6.418 1.846-.088.571c-.527 4.22-3.121 7.385-3.252 7.517l-.088.088-11.473 5.627c-.088.176-.22.308-.352.439l-1.495 1.275c-.307.264-.703.352-1.055.352zm-.351-2.374c-.264.176-.308.528-.132.791a.572.572 0 00.791.176l1.363-1.187c.044-.044.088-.088.088-.176l.088-.263 11.648-5.715c.396-.527 2.242-2.989 2.77-6.154l-4.132-1.187c-.748 2.682-.484 5.627-.484 5.627l.044.571-.571.132c-1.627.352-3.209 1.187-5.143 2.682a39.14 39.14 0 00-1.979 1.714c-.835.747-1.626 1.407-2.373 1.934l-.132.088h-.176c-.044 0-.088 0-.132.044l-1.538.923z" fill="#401737"/><path d="M391.016 277.895l-.978.884 8.872 9.816.978-.884-8.872-9.816z" fill="#401737"/><path d="M389.955 289.113l-.967-.879 22.067-24.265 4.792-1.274.307 1.274-4.352 1.187-21.847 23.957z" fill="#401737"/><path d="M386.922 296.498a4.662 4.662 0 01-4.659-4.659c0-2.594 2.11-4.66 4.659-4.66 2.594 0 4.66 2.11 4.66 4.66.044 2.549-2.066 4.659-4.66 4.659zm0-8.044a3.34 3.34 0 00-3.341 3.341 3.34 3.34 0 003.341 3.341 3.34 3.34 0 003.341-3.341c.044-1.847-1.451-3.341-3.341-3.341zm14.199 8.044a4.662 4.662 0 01-4.66-4.659c0-2.594 2.11-4.66 4.66-4.66a4.662 4.662 0 014.659 4.66c.044 2.549-2.066 4.659-4.659 4.659zm0-8.044a3.339 3.339 0 00-3.341 3.341 3.34 3.34 0 003.341 3.341 3.34 3.34 0 003.341-3.341c.044-1.847-1.495-3.341-3.341-3.341z" fill="#401737"/><path d="M36.531 205.461h-1.539v69.102h1.539v-69.102zm3.473 72.399h-1.539v-1.406a.347.347 0 00-.352-.352h-4.44a.347.347 0 00-.351.352v1.406h-1.539v-1.406c0-1.055.836-1.891 1.89-1.891h4.44c1.055 0 1.89.836 1.89 1.891v1.406zm2.637 11.649h-1.538v-6.638a.835.835 0 00-.836-.835h-8.615a.835.835 0 00-.836.835v6.638h-1.538v-6.638a2.364 2.364 0 012.374-2.373h8.615a2.364 2.364 0 012.374 2.373v6.638z" fill="#393939"/><path d="M49.63 295.267h-1.538v-3.472c0-.616-.528-1.143-1.143-1.143H25.146c-.616 0-1.143.527-1.143 1.143v3.165h-1.539v-3.165a2.664 2.664 0 012.682-2.682h21.803a2.664 2.664 0 012.681 2.682v3.472zm-8.703-94.334H30.86L26.2 187.13v-3.692h19.167l-.132 3.692-.044.088-4.264 13.715zm-8.968-1.538h7.869l3.912-12.528.044-1.891H27.74v1.891l4.22 12.528zm7.165 26.77h-6.418v1.539h6.418v-1.539zm-.132-21.583h-6.417v1.538h6.417v-1.538z" fill="#393939"/><path d="M42.773 199.395H28.706v1.538h14.067v-1.538zm68.628-1.484l-1.437.547 3.928 10.311 1.437-.547-3.928-10.311z" fill="#393939"/></svg>