<svg width="484" height="298" viewBox="0 0 484 298" fill="none" xmlns="http://www.w3.org/2000/svg">
<path d="M434.705 195.043C434.705 232.231 424.287 266.958 406.22 296.542H73.0163C54.9495 266.958 44.5314 232.231 44.5314 195.043C44.5314 148.491 60.8399 105.72 88.05 72.1794C92.4459 66.7286 97.1494 61.5855 102.117 56.6182C137.459 21.6274 186.033 0 239.662 0C347.36 0 434.705 87.3011 434.705 195.043Z" fill="#E3FCE3"/>
<path d="M380.724 131.303C372.724 131.303 366.262 137.765 366.262 145.765H395.142C395.186 137.765 388.68 131.303 380.724 131.303Z" fill="white"/>
<path d="M296.412 70.5967C300.193 67.7395 304.852 66.113 309.732 66.113C311.754 66.113 313.688 66.3768 315.534 66.9043C315.622 66.2009 315.666 65.4536 315.666 64.7503C315.666 52.9695 306.083 43.3866 294.302 43.3866C286.214 43.3866 279.137 47.9143 275.532 54.552C284.807 56.0905 292.588 62.1128 296.412 70.5967Z" fill="#B3E0B3"/>
<path d="M255.091 97.895C254.828 97.6313 254.608 97.4115 254.388 97.1477C254.256 97.4115 254.124 97.6313 253.948 97.895H230.475C229.156 95.785 228.409 93.3233 228.409 90.6858C228.409 83.0811 234.607 76.883 242.212 76.883C244.673 76.883 247.003 77.5423 248.981 78.6853C250.739 68.1792 259.839 60.1788 270.828 60.1788C281.334 60.1788 290.126 67.5199 292.412 77.3225C293.862 77.7182 295.269 78.2896 296.5 79.1248C299.401 74.9048 304.281 72.1794 309.775 72.1794C318.699 72.1794 325.952 79.4325 325.952 88.3561C325.952 88.444 325.952 88.4879 325.952 88.5319C327.227 87.7846 328.721 87.345 330.304 87.345C335.051 87.345 338.876 91.1694 338.876 95.9169C338.876 96.6202 338.788 97.2796 338.612 97.939H255.091V97.895Z" fill="white"/>
<path d="M382.087 273.025V295.267H388.241V273.64L415.935 284.937L400.417 244.979L407.582 247.924L395.714 217.33L402.439 220.055L384.417 173.635L366.394 220.055L373.119 217.33L361.251 247.924L368.416 244.979L352.898 284.937L382.087 273.025Z" fill="#B3E0B3"/>
<path d="M213.199 60.0468L212.54 58.772C212.496 58.7281 212.452 58.6401 212.408 58.5522C211.924 57.5851 210.65 55.0356 206.913 53.8487L207.397 52.3981C210.693 53.4531 212.364 55.4751 213.243 56.8378L213.287 56.7939C213.375 56.662 215.001 53.7608 219.09 52.442L219.573 53.8926C216.1 54.9916 214.65 57.4972 214.65 57.4972L213.199 60.0468Z" fill="white"/>
<path d="M185.857 50.8597L185.198 49.8486C185.154 49.7607 185.11 49.6728 185.022 49.5849C184.538 48.7936 183.703 47.4309 181.154 46.7276L181.549 45.233C183.967 45.8924 185.154 47.0793 185.857 48.0464C186.56 47.0793 187.747 45.8924 190.121 45.233L190.517 46.7276C188.011 47.4309 187.22 48.7057 186.604 49.6289L185.857 50.8597Z" fill="white"/>
<path d="M161.153 87.9164C157.724 87.9164 154.559 89.2351 152.229 91.3891C148.932 86.0262 142.998 82.4656 136.272 82.4656C125.898 82.4656 117.502 90.8616 117.502 101.236H147.877H155.042H174.472C174.472 93.8508 168.494 87.9164 161.153 87.9164Z" fill="white"/>
<path d="M456.068 295.751L462.662 292.278C462.178 290.784 460.859 290.256 460.859 290.256C458.486 286.608 456.376 278.475 452.815 276.058C453.518 273.113 453.387 267.046 453.387 267.046C453.738 265.728 453.782 264.365 453.475 263.046L453.035 261.288H454.486C456.859 251.705 452.947 241.77 448.859 238.166L446.969 235.177C446.925 235.221 446.881 235.221 446.837 235.264C446.881 235.221 446.925 235.177 446.925 235.177V235.221L447.848 234.473C449.87 232.803 450.397 229.858 448.991 227.616C448.991 227.572 448.947 227.572 448.947 227.528C447.32 224.978 442.705 224.671 441.078 228.363L441.782 228.539C441.738 228.583 441.694 228.627 441.65 228.715C441.386 229.066 441.21 229.462 441.034 229.902C440.111 232.407 440.946 236.056 442.837 236.715C443.276 236.891 443.76 236.891 444.287 236.759C444.111 238.605 443.672 240.32 443.672 240.32L442.001 248.056L441.606 261.288C441.606 261.288 441.606 263.046 442.309 265.991L438.573 276.146L437.65 293.509C437.65 293.509 433.781 293.421 432.243 295.004L439.979 296.894C440.639 295.619 439.979 294.169 439.979 294.169L439.891 294.125C439.935 294.125 439.979 294.125 439.979 294.125C441.738 288.234 443.628 282.52 443.496 277.64L446.09 275.31C447.145 277.245 448.024 278.607 448.024 278.607L458.53 291.443C458.618 291.399 456.2 293.421 456.068 295.751Z" fill="white"/>
<path d="M444.419 291.355C443.716 289.861 442.001 289.553 442.001 289.553L440.683 286.696L440.155 287.179C438.749 283.706 436.067 277.816 433.078 275.662C433.078 275.662 433.122 275.574 433.21 275.398L439.232 275.135L436.682 263.398C436.858 253.331 435.408 247.617 434.177 244.54C435.232 243.968 436.287 243.045 436.682 241.463C436.682 241.463 435.803 232.055 434.001 230.033C432.375 228.231 429.649 228.275 427.935 229.286C427.056 229.814 425.957 231.572 425.957 231.572L426.308 231.66C425.385 234.297 425.825 238.781 427.715 239.572C428.111 239.748 428.506 239.792 428.946 239.748L427.847 243.397L424.858 249.067L425.825 252.628L425.605 255.002C424.462 255.529 423.451 256.276 422.484 257.024C420.858 258.342 419.451 259.749 418.176 260.628C418.044 260.628 417.912 260.672 417.78 260.76L416.154 261.639C415.758 261.903 415.583 262.387 415.627 262.826L415.451 262.914C415.67 263.178 415.934 263.53 416.154 263.837L416.286 263.749C416.681 263.969 417.165 263.969 417.561 263.705L418.967 262.475C419.099 262.343 419.187 262.211 419.275 262.035L423.759 259.837L425.253 259.09L424.77 263.749L423.143 275.794L423.011 276.629V289.421H422.968L423.011 290.168V292.982C422.264 293.245 419.319 294.256 418.528 295.443L426.704 296.191C427.144 294.696 425.825 293.289 425.825 293.289L426.616 290.168L425.957 290.036C426.968 286.344 428.155 280.805 427.188 277.552C427.495 277.288 427.803 277.025 428.111 276.717L428.243 277.201L438.397 288.806L438.309 288.849L440.199 291.003C440.199 291.003 438.485 293.597 438.485 296.191L444.419 291.355Z" fill="white"/>
<path d="M40.1354 200.142H31.3877L26.9479 186.69V184.185H44.5751V186.69L40.1354 200.142Z" fill="white"/>
<path d="M114.117 231.22L122.425 234.957L108.666 196.01L114.557 197.592L95.5668 140.403L74.6866 199.482L82.4672 196.01L68.7083 234.957L77.0164 231.22L59.0375 282.08L95.5668 265.684L132.096 282.08L114.117 231.22Z" fill="#85C985"/>
<path d="M95.5667 140.403L114.557 197.592L100.358 192.273L95.5667 140.403Z" fill="#85C985"/>
<path d="M102.204 175.174L123.128 234.297L106.996 227.088L102.204 175.174Z" fill="#85C985"/>
<path d="M107.919 222.077H114.293L128.843 281.201L112.71 273.948L107.919 222.077Z" fill="#85C985"/>
<path d="M189.99 149.694L187.44 153.221L188.687 154.122L191.237 150.596L189.99 149.694Z" fill="#401737"/>
<path d="M239.808 149.719L237.258 153.246L238.505 154.147L241.055 150.621L239.808 149.719Z" fill="#401737"/>
<path d="M261.157 198.164L260.937 279.003H114.513V198.164H261.157Z" fill="white"/>
<path d="M311.446 141.633L263.751 198.164H261.157V279.003H355.756V198.164L311.446 141.633Z" fill="white"/>
<path d="M162.735 134.644H157.196L105.193 194.735L108.666 198.164H263.751L311.446 141.633L355.755 198.164H361.558L311.577 134.644H254.476H162.735Z" fill="white"/>
<path d="M261.025 279.003H114.513V290.08H261.025V279.003Z" fill="white"/>
<path d="M356.239 279.003H260.938V290.08H356.239V279.003Z" fill="white"/>
<path d="M366.305 290.081H227.134V295.707H366.305V290.081Z" fill="white"/>
<path d="M276.323 290.081H104.051V295.707H276.323V290.081Z" fill="white"/>
<path d="M310.874 194.779C315.73 194.779 319.666 190.213 319.666 184.581C319.666 178.948 315.73 174.382 310.874 174.382C306.019 174.382 302.083 178.948 302.083 184.581C302.083 190.213 306.019 194.779 310.874 194.779Z" fill="#85C985"/>
<path d="M307.401 193.284L319.798 180.888C319.666 180.668 319.49 180.492 319.358 180.317C318.83 179.877 318.347 179.393 317.995 178.91L305.203 191.702C305.863 192.273 306.522 193.021 307.401 193.284Z" fill="white"/>
<path d="M320.765 186.91C320.633 186.031 320.677 185.108 320.765 184.185L310.259 194.735H314.083L320.765 188.053C320.721 187.658 320.765 187.306 320.765 186.91Z" fill="white"/>
<path d="M313.028 174.382C312.633 174.426 312.237 174.514 311.885 174.646C316.281 175.833 319.49 179.833 319.49 184.581C319.49 189.328 316.237 193.328 311.885 194.515C312.281 194.603 312.633 194.691 313.028 194.779C317.995 194.032 321.82 189.768 321.82 184.581C321.776 179.394 317.995 175.13 313.028 174.382Z" fill="#6BB26B"/>
<path d="M217.287 221.462H121.985V264.76H217.287V221.462Z" fill="#85C985"/>
<path d="M313.907 244.584H289.159V279.003H313.907V244.584Z" fill="#85C985"/>
<path d="M307.753 233.023H283.927L303.577 208.933H326.435L307.753 233.023Z" fill="#85C985"/>
<path d="M180.934 150.733H163.262V168.975H180.934V150.733Z" fill="#85C985"/>
<path d="M230.738 150.733H213.067V168.975H230.738V150.733Z" fill="#85C985"/>
<path d="M260.674 290.476H163.262L172.098 279.047H260.674V290.476Z" fill="#85C985"/>
<path d="M276.323 295.575V289.949H150.339L145.987 295.575H276.323Z" fill="#6BB26B"/>
<path d="M260.63 198.164H254.959V278.959H260.63V198.164Z" fill="#6BB26B"/>
<path d="M264.85 198.779H114.161V202.252H264.85V198.779Z" fill="#6BB26B"/>
<path d="M260.938 202.208H266.784L311.314 149.678L350.041 198.779H355.536L311.138 142.864L263.531 198.823H260.938V202.208Z" fill="#6BB26B"/>
<path d="M260.542 194.735H105.193L156.888 134.644L311.226 134.6L260.542 194.735Z" fill="#85C985"/>
<path d="M188.055 153.678L172.318 135.963L158.295 151.656V174.25H187.923L205.946 153.634L188.055 153.678Z" fill="white"/>
<path d="M208.319 139.436L197.11 126.292H169.856L148.8 150.557L151.921 153.634H158.207V151.656L172.23 135.963L187.967 153.678H208.012L208.319 139.436Z" fill="white"/>
<path d="M267.356 150.205L246.959 126.336H219.705L198.649 150.601L201.77 153.678H208.056V151.656L222.079 135.963L237.816 153.678H264.059L267.356 150.205Z" fill="white"/>
<path d="M237.903 153.678L222.166 135.963L208.144 151.656V174.25H237.771L255.794 153.634L237.903 153.678Z" fill="white"/>
<path d="M205.11 153.634L188.055 173.591V153.678H191.22L205.11 153.634Z" fill="#6BB26B"/>
<path d="M180.67 150.733H163.262V168.14H180.67V150.733Z" fill="#85C985"/>
<path d="M230.65 150.733H213.243V168.14H230.65V150.733Z" fill="#85C985"/>
<path d="M254.959 153.634L237.904 173.591V153.678H241.069L254.959 153.634Z" fill="#6BB26B"/>
<path d="M166.164 151.084H163.262V168.975H166.164V151.084Z" fill="#6BB26B"/>
<path d="M180.934 150.733H163.262V152.975H180.934V150.733Z" fill="#6BB26B"/>
<path d="M215.968 151.084H213.067V168.975H215.968V151.084Z" fill="#6BB26B"/>
<path d="M230.738 150.733H213.067V152.975H230.738V150.733Z" fill="#6BB26B"/>
<path d="M208.319 139.436L199.396 150.117H190.604L169.944 126.292L197.11 126.336L208.319 139.436Z" fill="#85C985"/>
<path d="M267.487 150.733L239.926 150.117L219.265 126.292L246.431 126.336L267.487 150.733Z" fill="#85C985"/>
<path d="M192.187 221.549L148.448 265.288H153.24L196.978 221.549H192.187Z" fill="#6BB26B"/>
<path d="M171.746 221.549L128.008 265.288H132.799L176.538 221.549H171.746Z" fill="#6BB26B"/>
<path d="M161.548 221.549L121.766 261.332V265.288H122.601L166.34 221.549H161.548Z" fill="#6BB26B"/>
<path d="M181.944 221.549L138.206 265.288H142.997L186.78 221.549H181.944Z" fill="#6BB26B"/>
<path d="M130.865 221.549L121.766 230.693V235.484L135.701 221.549H130.865Z" fill="#6BB26B"/>
<path d="M151.306 221.549L121.766 251.133V255.925L156.097 221.549H151.306Z" fill="#6BB26B"/>
<path d="M141.107 221.549L121.766 240.891V245.726L145.899 221.549H141.107Z" fill="#6BB26B"/>
<path d="M121.766 221.549V225.286L125.458 221.549H121.766Z" fill="#6BB26B"/>
<path d="M201.594 221.549L157.855 265.288H162.647L206.385 221.549H201.594Z" fill="#6BB26B"/>
<path d="M217.199 246.825L198.737 265.288H203.528L217.199 251.617V246.825Z" fill="#6BB26B"/>
<path d="M217.199 257.024L208.935 265.288H213.726L217.199 261.815V257.024Z" fill="#6BB26B"/>
<path d="M217.199 226.385L178.296 265.288H183.087L217.199 231.176V226.385Z" fill="#6BB26B"/>
<path d="M217.199 236.583L188.494 265.288H193.286L217.199 241.375V236.583Z" fill="#6BB26B"/>
<path d="M211.792 221.549L168.054 265.288H172.845L216.628 221.549H211.792Z" fill="#6BB26B"/>
<path d="M299.313 279.047H289.159V289.201H299.313V279.047Z" fill="#6BB26B"/>
<path d="M303.973 285.025H296.544V289.949H303.973V285.025Z" fill="#6BB26B"/>
<path d="M208.1 153.678H188.055V175.086H208.1V153.678Z" fill="#6BB26B"/>
<path d="M246.739 243.221H239.09V248.891H246.739V243.221Z" fill="#F2E7E5"/>
<path d="M238.167 247.749H226.87V253.419H238.167V247.749Z" fill="#F2E7E5"/>
<path d="M355.448 259.354H344.15V265.024H355.448V259.354Z" fill="#F2E7E5"/>
<path d="M217.287 221.462H121.985V225.198H217.287V221.462Z" fill="#6BB26B"/>
<path d="M126.249 221.857H122.821V264.365H126.249V221.857Z" fill="#6BB26B"/>
<path d="M398.615 270.299V269.64V253.068H397.296C388.636 253.068 381.603 260.101 381.603 268.761V270.343V270.519V274.08C381.603 276.278 383.405 278.08 385.603 278.08H407.802C410 278.08 411.802 276.278 411.802 274.08V270.299H398.615Z" fill="#85C985"/>
<path d="M425.034 263.925L423.407 275.97L437.913 275.31L439.584 275.222L436.99 263.486L425.034 263.925Z" fill="#85C985"/>
<path d="M452.859 252.408C452.859 252.408 451.585 246.21 449.035 244.803L445.255 246.166L449.694 252.013C448.112 254.43 447.936 259.134 447.189 261.683L441.298 261.727L441.694 247.924L443.76 240.1L447.057 239.572L448.947 237.638C453.211 241.375 457.255 251.705 454.794 261.683H449.211C450.705 258.386 452.024 255.705 452.859 252.408Z" fill="#85C985"/>
<path d="M44.4433 184.185H26.9479V188.229H44.4433V184.185Z" fill="#85C985"/>
<path d="M41.8497 281.245H30.0249V289.465H41.8497V281.245Z" fill="#85C985"/>
<path d="M389.648 294.546C391.159 293.035 391.159 290.586 389.648 289.076C388.138 287.565 385.688 287.565 384.178 289.076C382.667 290.586 382.667 293.035 384.178 294.546C385.688 296.057 388.138 296.057 389.648 294.546Z" fill="white"/>
<path d="M403.844 294.539C405.354 293.028 405.354 290.579 403.844 289.068C402.333 287.558 399.884 287.558 398.373 289.068C396.862 290.579 396.862 293.028 398.373 294.539C399.884 296.05 402.333 296.05 403.844 294.539Z" fill="white"/>
<path d="M48.883 295.619H23.2554V292.322C23.2554 290.74 24.5302 289.465 26.1127 289.465H46.0257C47.6082 289.465 48.883 290.74 48.883 292.322V295.619Z" fill="white"/>
<path d="M314.347 244.584H289.598V248.848H314.347V244.584Z" fill="#6BB26B"/>
<path d="M314.303 244.759H310.259V279.047H314.303V244.759Z" fill="#6BB26B"/>
<path d="M447.936 234.429C449.958 232.759 450.485 229.814 449.079 227.572C449.079 227.528 449.035 227.528 449.035 227.484C447.408 224.934 442.793 224.627 441.166 228.319L444.507 229.11L444.595 230.561L446.134 230.605L447.057 235.221L447.936 234.429Z" fill="#85C985"/>
<path d="M436.727 241.419C436.727 241.419 435.847 232.011 434.045 229.989C432.419 228.187 429.693 228.231 427.979 229.242C427.1 229.77 426.001 231.528 426.001 231.528L431.276 232.891L431.32 245.331C431.32 245.331 435.759 245.155 436.727 241.419Z" fill="#85C985"/>
<path d="M427.231 289.817L423.319 289.025L423.803 292.586C423.803 292.586 419.846 294.476 418.879 295.839H427.363C427.803 294.344 426.396 292.982 426.396 292.982L427.231 289.817Z" fill="#85C985"/>
<path d="M440.243 292.938C440.068 293.377 439.892 293.817 439.628 294.212L444.595 291.443C444.287 289.905 442.353 289.377 442.353 289.377L442.046 288.278C441.694 289.905 440.815 291.443 440.243 292.938Z" fill="#85C985"/>
<path d="M57.7188 283.487L75.6977 232.671L67.3896 236.407L81.1485 197.417L73.3679 200.933L95.6107 138.029L112.051 187.57L110.557 188.053L95.5668 142.776L76.0054 198.076L83.786 194.559L70.0271 233.506L78.3352 229.77L60.3562 280.629L95.5668 264.848L114.82 273.464L114.205 274.871L95.5668 266.519L57.7188 283.487Z" fill="#393939"/>
<path d="M96.3581 262.738H94.8196V296.191H96.3581V262.738Z" fill="#393939"/>
<path d="M483.938 294.916H0.485107V296.455H483.938V294.916Z" fill="#393939"/>
<path d="M213.023 133.853H204.759V135.391H213.023V133.853Z" fill="#393939"/>
<path d="M261.817 279.75H113.853V197.417H262.081L261.817 279.75ZM115.392 278.212H260.322L260.542 198.955H115.392V278.212Z" fill="#393939"/>
<path d="M356.635 279.75H260.498V197.372H263.531L311.577 140.359L356.635 197.856V279.75ZM262.037 278.212H355.096V198.384L311.534 142.82L264.234 198.955H262.037V278.212Z" fill="#393939"/>
<path d="M264.235 198.955H108.447L104.271 194.779L104.754 194.208L156.976 133.853H162.867V135.391H157.68L106.38 194.691L109.106 197.417H263.531L311.578 140.403L356.283 197.373L360.107 197.417L311.314 135.391H254.608V133.853H312.061L363.272 198.955L355.492 198.911L355.272 198.647L311.534 142.82L264.235 198.955Z" fill="#393939"/>
<path d="M261.905 290.828H113.853V278.212H261.905V290.828ZM115.392 289.289H260.366V279.75H115.392V289.289Z" fill="#393939"/>
<path d="M357.119 290.828H260.279V278.212H357.119V290.828ZM261.817 289.289H355.58V279.75H261.817V289.289Z" fill="#393939"/>
<path d="M332.634 285.817H299.006V278.256H332.634V285.817ZM300.5 284.278H331.051V279.794H300.5V284.278Z" fill="#393939"/>
<path d="M337.293 290.828H303.621V284.278H337.249V290.828H337.293ZM305.16 289.289H335.711V285.817H305.16V289.289Z" fill="#393939"/>
<path d="M305.16 290.828H288.807V278.168L300.5 278.212V284.234H305.16V290.828ZM290.346 289.289H303.621V285.816H298.962V279.75L290.346 279.706V289.289Z" fill="#393939"/>
<path d="M208.583 154.469H188.187L172.801 137.15L159.526 151.964V154.425H152.141L148.317 150.601L148.8 150.073C148.8 150.073 169.812 125.896 169.856 125.809L170.076 125.545H170.428H198.077L209.507 138.952L208.32 139.963L197.33 127.083H170.779C169.944 128.006 166.34 132.182 150.427 150.557L152.8 152.887H158.031V151.348L172.845 134.82L188.934 152.931H208.671V154.469H208.583Z" fill="#393939"/>
<path d="M188.714 175.042H157.944V151.348L172.758 134.82L188.846 152.931L208.1 152.887L188.714 175.042ZM159.526 173.503H188.011L204.671 154.425L188.143 154.469L172.758 137.15L159.482 151.964V173.503H159.526Z" fill="#393939"/>
<path d="M189.286 153.678H187.747V174.251H189.286V153.678Z" fill="#393939"/>
<path d="M153.02 154.162L151.833 153.151L172.494 128.534L191.396 149.37H199.836V150.909H190.737L172.538 130.864L153.02 154.162Z" fill="#393939"/>
<path d="M231.969 169.767H212.76V149.986H231.969V169.767ZM214.298 168.228H230.431V151.524H214.298V168.228Z" fill="#393939"/>
<path d="M182.165 169.767H162.911V149.986H182.165V169.767ZM164.45 168.228H180.626V151.524H164.45V168.228Z" fill="#393939"/>
<path d="M264.894 154.469H237.992L222.606 137.15L209.331 151.964V154.425H201.946L198.122 150.601L198.605 150.073C198.605 150.073 219.617 125.896 219.661 125.809L219.881 125.545H220.233H247.882L268.982 150.205L264.894 154.469ZM238.695 152.931H264.235L266.872 150.205L247.135 127.127H220.584C219.749 128.05 216.144 132.226 200.232 150.601L202.605 152.931H207.792V151.392L222.606 134.864L238.695 152.931Z" fill="#393939"/>
<path d="M238.563 175.042H207.792V151.348L222.606 134.82L238.695 152.931L257.949 152.887L238.563 175.042ZM209.331 173.503H237.86L254.52 154.425L237.992 154.469L222.606 137.15L209.331 151.964V173.503Z" fill="#393939"/>
<path d="M239.091 153.678H237.552V174.251H239.091V153.678Z" fill="#393939"/>
<path d="M202.869 154.162L201.682 153.151L222.343 128.534L241.245 149.37H267.927V150.909H240.541L222.386 130.864L202.869 154.162Z" fill="#393939"/>
<path d="M218.518 265.508H121.678V220.67H218.518V265.508ZM123.217 263.969H216.979V222.209H123.217V263.969Z" fill="#393939"/>
<path d="M318.919 279.794H288.807V239.573H318.919V279.794ZM290.346 278.256H317.38V241.111H290.346V278.256Z" fill="#393939"/>
<path d="M315.094 279.794H288.807V243.836H315.094V279.794ZM290.346 278.256H313.556V245.375H290.346V278.256Z" fill="#393939"/>
<path d="M345.909 237.682L327.798 215.703L310.611 237.331H286.038L282.565 233.858L303.665 208.186H328.238L349.47 234.166L345.909 237.682ZM286.654 235.792H309.864L327.798 213.286L346.041 235.397L347.404 234.034L327.535 209.725H304.413L284.675 233.77L286.654 235.792Z" fill="#393939"/>
<path d="M367.185 296.454H275.664V289.289H367.185V296.454ZM277.202 294.916H365.646V290.828H277.202V294.916Z" fill="#393939"/>
<path d="M277.202 296.454H103.391V289.289H277.202V296.454ZM104.93 294.916H275.664V290.828H104.93V294.916Z" fill="#393939"/>
<path d="M308.5 234.605H283.62V233.067H307.753L327.271 208.45L328.501 209.417L308.5 234.605Z" fill="#393939"/>
<path d="M312.281 195.702C306.171 195.702 301.16 190.735 301.16 184.581C301.16 178.471 306.127 173.459 312.281 173.459C318.391 173.459 323.403 178.427 323.403 184.581C323.403 190.691 318.391 195.702 312.281 195.702ZM312.281 174.998C307.006 174.998 302.698 179.306 302.698 184.581C302.698 189.856 307.006 194.164 312.281 194.164C317.556 194.164 321.864 189.856 321.864 184.581C321.864 179.306 317.556 174.998 312.281 174.998Z" fill="#393939"/>
<path d="M261.333 195.482H105.326V193.944H260.63L311.094 134.117L312.281 135.128L261.333 195.482Z" fill="#393939"/>
<path d="M153.196 221.462H151.657V264.805H153.196V221.462Z" fill="#393939"/>
<path d="M186.033 221.462H184.494V264.805H186.033V221.462Z" fill="#393939"/>
<path d="M217.727 243.045H122.425V244.584H217.727V243.045Z" fill="#393939"/>
<path d="M456.288 296.235C456.112 296.235 455.936 296.191 455.805 296.059C455.541 295.883 455.409 295.532 455.453 295.224C455.849 292.85 458.09 290.96 458.178 290.872L459.014 291.883C459.014 291.883 457.695 292.982 457.079 294.433L461.827 291.927C461.387 291.136 460.64 290.828 460.596 290.828L461.08 289.597C461.167 289.641 462.706 290.257 463.277 292.015L463.453 292.542L456.684 296.103C456.596 296.235 456.42 296.235 456.288 296.235Z" fill="#401737"/>
<path d="M436.199 296.499L431.056 295.356L431.891 294.52C433.606 292.762 437.65 292.806 437.782 292.806L437.738 294.125C437.034 294.125 435.364 294.213 434.045 294.696L436.463 295.224L436.199 296.499Z" fill="#401737"/>
<path d="M440.991 295.927L439.672 295.751C439.76 295.048 439.452 294.388 439.452 294.388L440.639 293.773C440.683 293.905 441.123 294.828 440.991 295.927Z" fill="#401737"/>
<path d="M441.782 266.123C441.123 263.222 441.079 261.464 441.079 261.376H442.397C442.397 261.376 442.441 263.09 443.057 265.816L441.782 266.123Z" fill="#401737"/>
<path d="M458.926 292.235C458.75 292.235 458.618 292.235 458.442 292.191L458.222 292.147L447.54 279.091C447.496 279.047 446.617 277.684 445.562 275.75L446.705 275.135C447.672 276.849 448.464 278.168 448.595 278.388L458.882 291.004C459.321 291.004 459.761 290.652 459.981 290.388C459.189 289.07 458.442 287.311 457.651 285.509C456.156 282.124 454.486 278.256 452.376 276.805L451.98 276.541L452.068 276.102C452.771 273.289 452.64 267.31 452.64 267.266L453.958 267.222C453.958 267.442 454.09 272.893 453.475 276.014C455.717 277.772 457.299 281.465 458.838 284.981C459.673 286.96 460.508 288.806 461.343 290.081L461.563 290.432L461.299 290.784C461.387 290.784 460.376 292.235 458.926 292.235Z" fill="#401737"/>
<path d="M439.98 294.74C439.54 294.74 438.221 294.652 437.342 293.949L437.078 293.729L438.045 275.926L443.452 261.288L444.683 261.727L439.32 276.19L438.397 293.07C438.749 293.246 439.188 293.333 439.54 293.377L439.804 292.454C441.43 287.047 442.969 281.948 442.881 277.596V277.289L451.233 269.684C451.936 268.849 452.42 267.838 452.727 266.827C453.035 265.64 453.079 264.365 452.815 263.134L452.42 261.376L453.695 261.068L454.09 262.826C454.398 264.233 454.354 265.728 454.002 267.134C453.651 268.365 453.035 269.552 452.2 270.563L452.156 270.607L444.2 277.816C444.244 282.344 442.705 287.443 441.079 292.806L440.507 294.652H440.024C440.068 294.74 440.024 294.74 439.98 294.74Z" fill="#401737"/>
<path d="M455.057 261.947H449.738V260.628H454.002C456.068 251.309 452.156 241.946 448.464 238.693L449.343 237.682C453.958 241.726 457.519 251.969 455.189 261.42L455.057 261.947Z" fill="#401737"/>
<path d="M447.189 261.903H441.079L441.474 247.837L443.189 240.144L444.463 240.408L442.793 248.056L442.441 260.585H447.189V261.903Z" fill="#401737"/>
<path d="M444.068 240.935C444.024 240.935 443.936 240.935 443.892 240.935H443.584L443.365 240.671C443.233 240.496 443.189 240.276 443.277 240.056C443.365 239.792 443.804 238.298 443.892 236.451L445.211 236.539C445.123 237.77 444.947 238.913 444.771 239.616C446.574 239.441 447.673 238.605 448.156 238.122L446.53 235.572L447.629 234.869L449.783 238.21L449.519 238.561C449.343 238.649 447.629 240.935 444.068 240.935Z" fill="#401737"/>
<path d="M443.716 237.463C443.364 237.463 443.057 237.419 442.749 237.287C440.375 236.452 439.54 232.363 440.551 229.594C440.727 229.11 441.167 228.363 441.211 228.275L442.353 228.935C442.222 229.154 441.914 229.726 441.782 230.034C440.947 232.319 441.738 235.484 443.189 236.012C444.156 236.364 445.694 235.616 446.925 234.254L446.969 234.21L447.98 235.089L447.936 235.133C446.837 236.408 445.211 237.463 443.716 237.463Z" fill="#401737"/>
<path d="M449.694 264.541L448.464 264.013C448.508 263.925 448.508 263.881 448.508 263.794L448.771 261.596C448.771 261.464 448.815 261.464 449.123 260.76C449.87 259.222 451.804 255.266 452.552 252.364C452.2 250.694 451.013 246.738 449.343 245.507L446.705 246.474L450.881 251.969L450.618 252.364C450.134 253.112 449.167 255.222 448.288 260.98C448.244 261.332 448.244 261.376 448.156 261.464L447.189 263.266L446.046 262.651L446.969 260.936C446.969 260.892 446.969 260.848 447.013 260.76C447.628 256.584 448.42 253.639 449.299 252.013L444.595 245.815L449.519 244.056L449.782 244.188C452.508 245.727 453.783 251.573 453.914 252.232L453.958 252.364L453.914 252.496C453.167 255.529 451.101 259.749 450.354 261.332C450.222 261.552 450.134 261.727 450.09 261.859L449.826 263.969C449.826 264.189 449.782 264.365 449.694 264.541Z" fill="#401737"/>
<path d="M446.573 236.407L445.518 231.22L443.936 231.176L443.848 229.594L440.243 228.715L440.551 228.011C441.386 226.165 442.925 225.022 444.859 224.89C446.749 224.758 448.595 225.638 449.519 227.088L449.563 227.176C451.101 229.682 450.574 232.979 448.288 234.869L446.573 236.407ZM445.211 229.902L446.661 229.946L447.453 233.99L447.54 233.946C449.299 232.451 449.738 229.902 448.551 227.967L448.508 227.88C447.848 226.825 446.441 226.165 445.035 226.253C443.848 226.341 442.881 226.912 442.222 227.88L445.167 228.583L445.211 229.902Z" fill="#401737"/>
<path d="M446.315 261.997L445.694 263.161L450.076 265.5L450.697 264.336L446.315 261.997Z" fill="#401737"/>
<path d="M398.923 270.607H397.604V253.991H396.945C388.636 253.991 381.911 260.716 381.911 269.024V270.343H380.592V269.024C380.592 260.013 387.933 252.672 396.945 252.672H398.923V270.607Z" fill="#401737"/>
<path d="M428.858 244.672C428.199 244.672 427.715 244.496 427.672 244.496L427.1 244.276L428.595 239.353L429.869 239.748L428.77 243.397C429.342 243.397 430.177 243.265 431.012 242.474L431.936 243.441C430.793 244.452 429.65 244.672 428.858 244.672Z" fill="#401737"/>
<path d="M428.946 240.408C428.506 240.408 428.067 240.32 427.671 240.144C425.209 239.089 424.902 233.858 426.001 231.089L427.231 231.572C426.22 234.078 426.792 238.298 428.199 238.913C429.034 239.265 430.089 239.001 431.232 238.122L432.023 239.177C430.968 240.012 429.913 240.408 428.946 240.408Z" fill="#401737"/>
<path d="M437.43 288.586L427.759 277.508L427.32 275.662L428.638 275.398L428.946 276.893L438.397 287.707L437.43 288.586Z" fill="#401737"/>
<path d="M437.738 282.871C436.023 279.399 434.265 276.981 432.771 275.882L433.518 274.827C435.232 276.058 437.034 278.563 438.881 282.3L437.738 282.871Z" fill="#401737"/>
<path d="M423.847 289.069H422.528V276.541L424.375 263.618L425.649 263.793L423.847 276.673V289.069Z" fill="#401737"/>
<path d="M426.748 290.168L425.473 289.817C427.012 284.366 427.408 280.058 426.704 277.684L426.572 277.289L426.924 277.025C427.583 276.454 428.287 275.794 428.946 275.047L429.913 275.926C429.298 276.585 428.682 277.201 428.067 277.728C428.902 281.113 427.847 286.344 426.748 290.168Z" fill="#401737"/>
<path d="M427.408 296.499H417.165L417.869 295.444C418.704 294.213 421.473 292.762 422.616 292.191L422.089 288.19L427.583 289.289L426.704 292.762C427.144 293.334 428.023 294.608 427.583 296.015L427.408 296.499ZM420.154 295.18H426.353C426.309 294.257 425.517 293.421 425.473 293.421L425.21 293.158L425.957 290.344L423.627 289.905L424.023 293.026L423.583 293.246C422.66 293.641 421.209 294.433 420.154 295.18Z" fill="#401737"/>
<path d="M440.771 295.048L439.979 293.993L443.76 291.179C443.057 290.388 441.826 290.168 441.826 290.168L442.046 288.85C442.133 288.85 444.419 289.245 445.254 291.048L445.474 291.531L440.771 295.048Z" fill="#401737"/>
<path d="M422.528 276.497L424.375 263.134L437.43 262.651L440.112 273.816L438.837 274.124L436.375 264.013L425.518 264.409L424.067 275.135L438.749 274.563L438.793 275.882L422.528 276.497Z" fill="#401737"/>
<path d="M437.562 264.453L424.243 264.409L424.77 259.002L426.089 259.134L425.693 263.09L436.287 263.134C436.463 253.331 435.012 247.749 433.826 244.76L435.056 244.276C436.375 247.441 437.87 253.375 437.606 263.837L437.562 264.453Z" fill="#401737"/>
<path d="M426.485 255.046L425.166 254.914L425.386 252.628L424.375 248.98L427.452 243.089L428.638 243.705L425.781 249.112L426.704 252.54L426.485 255.046Z" fill="#401737"/>
<path d="M430.836 245.99L430.792 233.374L425.166 231.924L425.649 231.177C425.781 231.001 426.88 229.242 427.891 228.671C429.825 227.528 432.902 227.44 434.792 229.55C436.683 231.66 437.518 240.364 437.606 241.375V241.507L437.562 241.639C436.683 244.979 433.254 245.99 431.539 246.078L430.836 245.99ZM427.232 231.133L432.067 232.407L432.111 244.628C433.254 244.408 435.54 243.705 436.199 241.375C435.935 238.737 435.056 231.968 433.693 230.429C432.331 228.891 429.957 228.935 428.462 229.814C428.111 230.034 427.627 230.605 427.232 231.133Z" fill="#401737"/>
<path d="M407.451 279.047H385.252C382.702 279.047 380.592 276.981 380.592 274.387V269.948H412.11V274.387C412.066 276.937 410 279.047 407.451 279.047ZM381.867 271.266V274.387C381.867 276.234 383.361 277.728 385.208 277.728H407.407C409.253 277.728 410.747 276.234 410.747 274.387V271.266H381.867Z" fill="#401737"/>
<path d="M417.033 264.541C416.418 264.541 415.802 264.233 415.451 263.706C414.879 262.826 415.099 261.64 415.978 261.068L416.022 261.024L417.649 260.145C417.781 260.057 417.956 260.013 418.132 259.969C418.792 259.486 419.495 258.87 420.242 258.211C420.902 257.639 421.561 257.068 422.308 256.453L422.968 255.925C424.111 255.09 425.649 254.123 427.407 253.639C427.363 252.496 427.32 249.815 428.199 247.397L428.418 246.826L434.836 248.672L434.748 249.243C434.221 253.463 431.627 256.628 431.496 256.76L431.408 256.848L419.935 262.475C419.847 262.651 419.715 262.783 419.583 262.914L418.088 264.189C417.781 264.453 417.385 264.541 417.033 264.541ZM416.682 262.167C416.418 262.343 416.374 262.695 416.55 262.958C416.726 263.222 417.077 263.31 417.341 263.134L418.704 261.947C418.748 261.903 418.792 261.859 418.792 261.771L418.88 261.508L430.528 255.793C430.924 255.266 432.77 252.804 433.298 249.639L429.166 248.452C428.418 251.134 428.682 254.079 428.682 254.079L428.726 254.65L428.155 254.782C426.528 255.134 424.946 255.969 423.012 257.464C422.308 258.035 421.649 258.606 421.033 259.178C420.198 259.925 419.407 260.585 418.66 261.112L418.528 261.2H418.352C418.308 261.2 418.264 261.2 418.22 261.244L416.682 262.167Z" fill="#401737"/>
<path d="M391.016 277.895L390.038 278.779L398.91 288.595L399.888 287.711L391.016 277.895Z" fill="#401737"/>
<path d="M389.955 289.113L388.988 288.234L411.055 263.969L415.847 262.695L416.154 263.969L411.802 265.156L389.955 289.113Z" fill="#401737"/>
<path d="M386.922 296.498C384.329 296.498 382.263 294.388 382.263 291.839C382.263 289.245 384.373 287.179 386.922 287.179C389.516 287.179 391.582 289.289 391.582 291.839C391.626 294.388 389.516 296.498 386.922 296.498ZM386.922 288.454C385.076 288.454 383.581 289.948 383.581 291.795C383.581 293.641 385.076 295.136 386.922 295.136C388.769 295.136 390.263 293.641 390.263 291.795C390.307 289.948 388.812 288.454 386.922 288.454Z" fill="#401737"/>
<path d="M401.121 296.498C398.527 296.498 396.461 294.388 396.461 291.839C396.461 289.245 398.571 287.179 401.121 287.179C403.714 287.179 405.78 289.289 405.78 291.839C405.824 294.388 403.714 296.498 401.121 296.498ZM401.121 288.454C399.274 288.454 397.78 289.948 397.78 291.795C397.78 293.641 399.274 295.136 401.121 295.136C402.967 295.136 404.462 293.641 404.462 291.795C404.506 289.948 402.967 288.454 401.121 288.454Z" fill="#401737"/>
<path d="M36.531 205.461H34.9924V274.563H36.531V205.461Z" fill="#393939"/>
<path d="M40.0036 277.86H38.4651V276.454C38.4651 276.234 38.2893 276.102 38.1134 276.102H33.6736C33.4539 276.102 33.322 276.278 33.322 276.454V277.86H31.7834V276.454C31.7834 275.399 32.6186 274.563 33.6736 274.563H38.1134C39.1684 274.563 40.0036 275.399 40.0036 276.454V277.86Z" fill="#393939"/>
<path d="M42.6411 289.509H41.1026V282.871C41.1026 282.388 40.707 282.036 40.2674 282.036H31.6516C31.168 282.036 30.8164 282.432 30.8164 282.871V289.509H29.2778V282.871C29.2778 281.553 30.3328 280.498 31.6516 280.498H40.2674C41.5861 280.498 42.6411 281.553 42.6411 282.871V289.509Z" fill="#393939"/>
<path d="M49.6304 295.267H48.0919V291.795C48.0919 291.179 47.5644 290.652 46.949 290.652H25.1457C24.5303 290.652 24.0028 291.179 24.0028 291.795V294.96H22.4642V291.795C22.4642 290.3 23.6511 289.113 25.1457 289.113H46.949C48.4436 289.113 49.6304 290.3 49.6304 291.795V295.267Z" fill="#393939"/>
<path d="M40.9268 200.933H30.8604L26.2008 187.13V183.438H45.3666L45.2347 187.13L45.1908 187.218L40.9268 200.933ZM31.9593 199.395H39.8279L43.7401 186.867L43.7841 184.976H27.7393V186.867L31.9593 199.395Z" fill="#393939"/>
<path d="M39.1244 226.165H32.7065V227.704H39.1244V226.165Z" fill="#393939"/>
<path d="M38.9925 204.582H32.5746V206.12H38.9925V204.582Z" fill="#393939"/>
<path d="M42.7729 199.395H28.7063V200.933H42.7729V199.395Z" fill="#393939"/>
<path d="M111.401 197.911L109.964 198.458L113.892 208.769L115.329 208.222L111.401 197.911Z" fill="#393939"/>
</svg>
